<svg width="1024" height="1024" viewBox="0 0 1024 1024" fill="none" xmlns="http://www.w3.org/2000/svg">
<rect width="1024" height="1024" fill="url(#paint0_linear)"/>
<rect width="1024" height="1024" fill="url(#paint1_linear)"/>
<path fill-rule="evenodd" clip-rule="evenodd" d="M498.863 243.073C478.445 257.125 468.553 286.282 484.208 308.943C555.881 404.28 621.645 490 631.795 504.087C644.399 521.581 651.167 539.439 651.167 563.898C651.167 593.009 632.677 614.898 632.677 614.898C632.677 614.898 605.987 650.118 552.608 720.559C552.546 720.641 552.524 720.696 552.524 720.805C552.525 720.914 552.547 720.972 552.61 721.055C582.371 760.55 597.335 780.388 597.499 780.569C603.731 787.426 610.191 790.816 618.772 790.816C625.913 790.816 633.607 785.884 639.349 779.426C639.696 779.059 681.959 723.883 766.14 613.898C780.59 594.537 787.723 577.804 787.541 563.697C787.266 542.537 780.092 532.855 765.47 512.052C723.644 457.732 692.671 416.185 665.926 381.209C627.062 330.386 599.848 292.863 571.882 257.439C552.654 229.372 519.28 229.021 498.863 243.073ZM692.343 787.383C699.275 778.421 735.734 730.319 801.722 643.078C822.085 615.915 834.526 593.641 833.983 562.78C833.44 531.919 824.73 512.023 804.256 485.646L803.979 485.255L803.686 484.874C762.061 430.813 729.799 388.627 702.977 353.554C676.761 319.269 644.679 277.747 606.734 228.989C604.924 226.474 590.95 208.715 579.419 201.143C565.963 192.306 549.045 187 527.021 187C481.777 187 455.453 218.456 446.454 230.946C439.745 240.258 432.512 255.265 430.961 274.213C429.355 293.828 432.135 317.68 449.05 339.321C484.889 385.383 583.784 517.432 593.646 531.12C600.286 540.339 603.059 548.144 603.562 559.725C603.62 561.063 603.632 575.96 595.437 587.495L449.761 780.028C443.381 787.22 436.99 790.816 430.59 790.816C420.989 790.816 413.687 787.437 407.085 780.159C406.985 780.04 348.443 703.049 231.459 549.187C223.691 539.054 209.182 537.137 199.051 544.908C188.921 552.676 187.005 567.189 194.773 577.319L370.885 809.382L370.921 809.427C373.585 813.112 381.445 820.553 386.212 824.012C395.695 830.893 411.005 837.051 429.945 837.051C458.249 837.051 474.881 822.798 485.135 809.48L485.18 809.422L485.225 809.363C492.523 799.76 505.249 782.997 523.401 759.073C523.434 759.03 523.448 759.024 523.499 759.026C523.549 759.027 523.565 759.034 523.599 759.079C548.143 792.077 560.49 808.681 560.64 808.892C575.71 829.81 596.69 837.051 618.127 837.051C639.564 837.051 651.82 830.414 660.644 823.725C665.165 820.297 671.71 813.757 675.242 809.496L692.343 787.383Z" fill="white"/>
<defs>
<linearGradient id="paint0_linear" x1="0" y1="0" x2="1024" y2="1024" gradientUnits="userSpaceOnUse">
<stop stop-color="#1F36FA"/>
<stop offset="1" stop-color="#3935FF"/>
</linearGradient>
<linearGradient id="paint1_linear" x1="0" y1="0" x2="1024" y2="1024" gradientUnits="userSpaceOnUse">
<stop stop-color="#1F36FA"/>
<stop offset="1" stop-color="#3935FF"/>
</linearGradient>
</defs>
</svg>
